<svg data-v-423bf9ae="" xmlns="http://www.w3.org/2000/svg" viewBox="0 0 1258 90" class="iconLeft"><!----><!----><!----><g data-v-423bf9ae="" id="093c82a3-10d4-4b80-aa4c-aecc2c152cf6" fill="white" transform="matrix(5.7526364568010235,0,0,5.7526364568010235,116.72946334585185,13.389263007133255)"><path d="M6.30 10.50L6.30 10.50L6.30 8.50L3.12 8.50L3.12 6.50L5.75 6.50L5.75 4.49L3.12 4.49L3.12 2.49L6.13 2.49L6.13 0.49L1.12 0.49L1.12 10.50L6.30 10.50ZM8.18 0.49L8.18 0.49L8.18 10.50L13.36 10.50L13.36 8.50L10.18 8.50L10.18 0.49L8.18 0.49ZM20.26 10.50L20.26 10.50L20.26 8.50L17.08 8.50L17.08 6.50L19.71 6.50L19.71 4.49L17.08 4.49L17.08 2.49L20.09 2.49L20.09 0.49L15.08 0.49L15.08 10.50L20.26 10.50ZM28.50 2.81L28.50 2.81L28.74 0.76C28.14 0.49 27.47 0.36 26.77 0.36C19.99 0.36 19.98 10.53 26.77 10.53C27.47 10.53 28.35 10.36 28.97 10.11L28.70 8.04C28.32 8.23 27.64 8.48 26.77 8.48C22.81 8.48 22.81 2.38 26.77 2.38C27.64 2.38 28.13 2.62 28.50 2.81ZM34.22 10.50L34.22 2.49L36.71 2.49L36.71 0.50L29.72 0.50L29.72 2.49L32.21 2.49L32.21 10.50L34.22 10.50L34.22 10.50ZM45.47 10.50L45.47 10.50L43.15 6.37C46.09 5.52 45.74 0.49 42.17 0.49L38.22 0.49L38.22 10.50L40.22 10.50L40.22 6.68L41.19 6.68L43.20 10.50ZM40.22 2.49L41.99 2.49C43.34 2.49 43.34 4.73 41.99 4.73L40.22 4.73L40.22 4.73ZM51.62 10.64L51.62 10.64C58.51 10.64 58.51 0.32 51.62 0.32C44.73 0.32 44.73 10.64 51.62 10.64ZM51.62 8.57L51.62 8.57C47.61 8.57 47.61 2.38 51.62 2.38C55.62 2.38 55.62 8.57 51.62 8.57ZM60.66 5.05L60.66 5.05L65.73 10.71L66.26 10.71L66.26 0.50L64.25 0.50L64.25 6.16L59.19 0.28L58.66 0.28L58.66 10.50L60.66 10.50L60.66 5.05ZM70.52 10.50L70.52 0.49L68.52 0.49L68.52 10.50L70.52 10.50L70.52 10.50ZM79.14 2.81L79.14 2.81L79.38 0.76C78.78 0.49 78.11 0.36 77.41 0.36C70.63 0.36 70.62 10.53 77.41 10.53C78.11 10.53 78.99 10.36 79.60 10.11L79.34 8.04C78.96 8.23 78.27 8.48 77.41 8.48C73.44 8.48 73.44 2.38 77.41 2.38C78.27 2.38 78.76 2.62 79.14 2.81ZM91.55 2.81L91.55 2.81L91.78 0.76C91.18 0.49 90.51 0.36 89.81 0.36C83.03 0.36 83.02 10.53 89.81 10.53C90.51 10.53 91.39 10.36 92.01 10.11L91.74 8.04C91.36 8.23 90.68 8.48 89.81 8.48C85.85 8.48 85.85 2.38 89.81 2.38C90.68 2.38 91.17 2.62 91.55 2.81ZM95.61 10.50L95.61 0.49L93.60 0.49L93.60 10.50L95.61 10.50L95.61 10.50ZM101.51 10.50L101.51 2.49L104.01 2.49L104.01 0.50L97.02 0.50L97.02 2.49L99.51 2.49L99.51 10.50L101.51 10.50L101.51 10.50ZM107.52 10.50L107.52 0.49L105.52 0.49L105.52 10.50L107.52 10.50L107.52 10.50ZM115.67 10.50L115.67 10.50L115.67 8.48L111.94 8.48C113.15 5.82 114.35 3.16 115.56 0.49L115.56 0.49L109.49 0.49L109.49 2.44L112.57 2.44C111.37 5.11 110.17 7.81 108.96 10.50L108.96 10.50L115.67 10.50ZM122.44 10.50L122.44 10.50L122.44 8.50L119.27 8.50L119.27 6.50L121.90 6.50L121.90 4.49L119.27 4.49L119.27 2.49L122.28 2.49L122.28 0.49L117.26 0.49L117.26 10.50L122.44 10.50ZM126.32 5.05L126.32 5.05L131.39 10.71L131.92 10.71L131.92 0.50L129.91 0.50L129.91 6.16L124.85 0.28L124.32 0.28L124.32 10.50L126.32 10.50L126.32 5.05ZM145.40 10.50L145.40 10.50L143.08 6.37C146.02 5.52 145.67 0.49 142.10 0.49L138.15 0.49L138.15 10.50L140.15 10.50L140.15 6.68L141.12 6.68L143.14 10.50ZM140.15 2.49L141.92 2.49C143.28 2.49 143.28 4.73 141.92 4.73L140.15 4.73L140.15 4.73ZM151.91 10.50L151.91 10.50L151.91 8.50L148.74 8.50L148.74 6.50L151.37 6.50L151.37 4.49L148.74 4.49L148.74 2.49L151.75 2.49L151.75 0.49L146.73 0.49L146.73 10.50L151.91 10.50ZM160.16 2.81L160.16 2.81L160.40 0.76C159.80 0.49 159.12 0.36 158.42 0.36C151.65 0.36 151.63 10.53 158.42 10.53C159.12 10.53 160.01 10.36 160.62 10.11L160.36 8.04C159.98 8.23 159.29 8.48 158.42 8.48C154.46 8.48 154.46 2.38 158.42 2.38C159.29 2.38 159.78 2.62 160.16 2.81ZM167.03 10.64L167.03 10.64C173.92 10.64 173.92 0.32 167.03 0.32C160.15 0.32 160.15 10.64 167.03 10.64ZM167.03 8.57L167.03 8.57C163.03 8.57 163.03 2.38 167.03 2.38C171.04 2.38 171.04 8.57 167.03 8.57ZM181.33 10.50L181.33 10.50L179.00 6.37C181.94 5.52 181.59 0.49 178.02 0.49L174.08 0.49L174.08 10.50L176.08 10.50L176.08 6.68L177.04 6.68L179.06 10.50ZM176.08 2.49L177.84 2.49C179.20 2.49 179.20 4.73 177.84 4.73L176.08 4.73L176.08 4.73ZM185.64 0.49L182.66 0.49L182.66 10.50L185.64 10.50C192.30 10.50 192.30 0.49 185.64 0.49L185.64 0.49ZM185.64 2.49C189.53 2.49 189.53 8.50 185.64 8.50L184.66 8.50L184.66 2.49L185.64 2.49L185.64 2.49ZM192.05 9.86C193.41 10.56 194.66 10.63 195.22 10.58C197.09 10.49 198.24 9.21 198.24 7.55C198.24 5.95 196.90 5.05 195.34 4.48C194.77 4.28 194.28 4.03 194.22 3.47C194.18 2.91 194.50 2.39 195.22 2.35C195.52 2.34 196.15 2.32 197.26 2.77L197.51 0.84C196.22 0.39 195.54 0.39 195.02 0.42C193.35 0.50 192.19 1.79 192.19 3.47C192.19 5.15 193.59 5.95 195.16 6.52C195.72 6.72 196.15 6.97 196.20 7.55C196.25 8.09 195.75 8.51 195.16 8.55C194.70 8.60 193.45 8.57 192.30 7.76L192.05 9.86L192.05 9.86Z"></path></g><!----><g data-v-423bf9ae="" id="247d8096-23af-46a2-94fc-2fa21644033d" transform="matrix(1.0860252393927197,0,0,1.0860252393927197,-1.8012619696359806,-8.736720161316697)" stroke="none" fill="white"><path d="M59.096 50L39.894 28.776 63.048 8.564H6.543A4.043 4.043 0 0 0 2.5 12.606v56.596a4.043 4.043 0 0 0 4.043 4.042h8.085v18.191l18.191-18.191h60.638a4.043 4.043 0 0 0 4.043-4.042V13.383L59.096 50zm-30.32 9.434l8.591-28.636 19.581 21.729-28.172 6.907z"></path></g><!----></svg>