<svg data-v-423bf9ae="" xmlns="http://www.w3.org/2000/svg" viewBox="0 0 173.73912448558602 60" class="font"><!----><!----><!----><g data-v-423bf9ae="" id="d0c01b00-e488-4509-b783-f20eea34db32" fill="black" transform="matrix(6.521738589598731,0,0,6.521738589598731,-4.173913384543269,-22.760867501477136)"><path d="M0.64 12.61L0.64 12.32L1.64 12.10L1.74 10.90L1.74 5.39L1.64 4.18L0.64 3.95L0.64 3.64L7.19 3.64L7.59 5.41L7.38 5.47L7.19 5.39L6.19 4.06L4.27 4.06L3.34 4.22L3.28 5.18L3.28 7.71L4.27 7.85L5.89 7.77L6.22 6.85L6.37 6.77L6.55 6.84L6.55 9.32L6.38 9.37L6.22 9.28L5.89 8.38L4.27 8.29L3.28 8.45L3.28 10.90L3.36 11.99L4.27 12.20L6.06 12.20L6.92 11.80L7.77 10.46L7.96 10.39L8.27 10.46L7.49 12.61L0.64 12.61ZM16.83 12.61L16.83 12.61Q16.39 12.61 15.89 12.28L15.89 12.28L15.89 12.28Q15.39 11.96 15.00 11.43L15.00 11.43L12.91 8.63L12.52 8.44L11.96 8.44L11.96 10.91L12.04 12.10L13.02 12.32L13.02 12.61L9.31 12.61L9.31 12.32L10.31 12.10L10.40 10.91L10.40 5.39L10.31 4.18L9.31 3.96L9.31 3.64L13.38 3.64L13.38 3.64Q14.19 3.64 14.88 3.92L14.88 3.92L14.88 3.92Q15.56 4.20 15.97 4.74L15.97 4.74L15.97 4.74Q16.38 5.28 16.38 6.02L16.38 6.02L16.38 6.02Q16.38 6.49 16.07 6.95L16.07 6.95L16.07 6.95Q15.76 7.40 15.31 7.72L15.31 7.72L15.31 7.72Q14.85 8.04 14.42 8.16L14.42 8.16L14.33 8.19L17.14 11.84L18.73 12.32L18.72 12.61L16.83 12.61ZM11.96 8.09L12.74 8.09L12.74 8.09Q13.28 8.09 13.74 7.86L13.74 7.86L13.74 7.86Q14.21 7.63 14.49 7.21L14.49 7.21L14.49 7.21Q14.77 6.78 14.77 6.25L14.77 6.25L14.77 6.25Q14.77 5.28 14.30 4.66L14.30 4.66L14.30 4.66Q13.84 4.03 12.81 4.03L12.81 4.03L12.02 4.20L11.96 5.18L11.96 8.09ZM23.58 12.69L23.58 12.69Q22.22 12.69 21.08 12.09L21.08 12.09L21.08 12.09Q19.95 11.50 19.30 10.47L19.30 10.47L19.30 10.47Q18.65 9.43 18.65 8.20L18.65 8.20L18.65 8.20Q18.65 6.92 19.31 5.84L19.31 5.84L19.31 5.84Q19.97 4.76 21.12 4.12L21.12 4.12L21.12 4.12Q22.26 3.49 23.63 3.49L23.63 3.49L23.63 3.49Q25.27 3.49 26.66 3.75L26.66 3.75L27.07 5.67L26.65 5.80L26.65 5.80Q26.46 5.11 25.81 4.50L25.81 4.50L25.81 4.50Q25.16 3.90 23.72 3.90L23.72 3.90L23.72 3.90Q22.68 3.90 21.94 4.46L21.94 4.46L21.94 4.46Q21.21 5.02 20.83 5.92L20.83 5.92L20.83 5.92Q20.45 6.82 20.45 7.85L20.45 7.85L20.45 7.85Q20.45 8.98 20.84 10.00L20.84 10.00L20.84 10.00Q21.23 11.02 22.03 11.65L22.03 11.65L22.03 11.65Q22.83 12.28 23.99 12.28L23.99 12.28L23.99 12.28Q24.62 12.28 25.08 12.11L25.08 12.11L25.08 12.11Q25.54 11.95 25.92 11.65L25.92 11.65L26.89 10.05L27.28 10.14L26.73 12.07L26.73 12.07Q26.00 12.37 25.26 12.53L25.26 12.53L25.26 12.53Q24.51 12.69 23.58 12.69L23.58 12.69Z"></path></g><!----><!----></svg>